<svg id="Layer_1" data-name="Layer 1" xmlns="http://www.w3.org/2000/svg" viewBox="0 0 130.11 123.39"><defs><style>.cls-1{fill:#00539b;}.cls-2{fill:#fff;}</style></defs><title>z-logo-flat</title><path class="cls-1" d="M355.83,211.29V189.85h-27v51.79H293a1.67,1.67,0,0,0,1,1,5,5,0,0,1,1.86,1,6.65,6.65,0,0,1,.79,1.36s.84,1,1.35,1.47,1,1.41,1.36,1.8a3.72,3.72,0,0,0,.58.86c.27.28.54.72.8,1s.63.55.89.8.65.36.93.64.63.46.76.59.29,0,.72.42a9.84,9.84,0,0,0,1,.76c.18.19.1.4.37.68s.83.87,1.23,1.27,1.1,1.14,1.23,1.27.53.49.72.68,1,1,1.14,1.18a3.53,3.53,0,0,1,.51,1.26,3.25,3.25,0,0,0,.46,1.19,1.37,1.37,0,0,1,.17.76v.6a.91.91,0,0,1,.38.72c0,.33.34.63.34,1s.3,1.87.3,2.24.21,1.31.21,1.86a3.06,3.06,0,0,0,.51,1.7,1.6,1.6,0,0,1,.51.85c0,.2.29.33.5.54s.21.72.64.72.42.38.67.38a2.57,2.57,0,0,1,1.23.43c.21.21.72.29.89.46s.68.5.93.76.57.45.93.81.83.48,1.1.76.55.67.72.85.68.2.95.48a1,1,0,0,0,.83.24l1.61,0c.25,0,.67.13,1,.13s1.1.22.89.22.59.29.59.29.43.21.6,0,.61-.86.8-1.05.11-.62.34-.85a1.67,1.67,0,0,0,.46-.85c0-.21.51-.89.51-1.23s.68-1.31.68-1.64a3.25,3.25,0,0,1,.67-1.24c.13-.12.72-.84,1-1.13s.93-.56,1.1-.73a2.4,2.4,0,0,1,1.18-.59,2.83,2.83,0,0,0,1-.38s.55-.29.76-.08,1.08.48,1.35.76,1.19.51,1.36.68a2.14,2.14,0,0,0,1.06.21h1c.3,0,1-.29,1.4-.29s.55-.39,1.52-.17,1.15,0,1.4.2.85,0,1.1.26.78.31,1,.5a2,2,0,0,0,.64.35,3.24,3.24,0,0,1,.63.33,5.06,5.06,0,0,0,.76.43,1.78,1.78,0,0,1,.64.21c.12.13.68.17.89.38s.72.42.88.59.66.86.81,1,.51.42.51.67.29.55.51.76.52.66.8.94,0,.21.55.71.36.87.64,1.15.52.91.8,1.18.32.87.51,1.06a1.71,1.71,0,0,1,.5,1c0,.33.51.8.51,1.26a10.24,10.24,0,0,0,.46,1.48c0,.22.3,1.19.3,1.57s.3,1.23.3,1.65.21,1.27.21,1.78,0,1.78,0,2a3.69,3.69,0,0,0,1.05,1.55c.66.66,1.19,1.14,1.48,1.44s.55.42,1.06.92.91,1.26,1.22,1.57.85,1.4,1.15,1.7.32,1.63.67,2c.51.52.34.94.64,1.95s.21,2.08.47,2.93a6.37,6.37,0,0,0,.85,2.15c.33.34.59,1.23,1.26,1.53s1.06.25,1.78.51,2,.63,3.17,1a52.4,52.4,0,0,0,5.13,1.22,25.33,25.33,0,0,1,3.67.93c.76.26,3.22.6,3.67.75a20,20,0,0,0,3.19.65c.21,0,1.06.11,1.31-.34a.63.63,0,0,0-.21-.85c-.13-.13-.06-.65-.21-.72a4,4,0,0,0-.81-.34,5.35,5.35,0,0,1-1-.24L387,309.25a9.38,9.38,0,0,1-1.07-2.15c0-.26-.59-1.45-.59-1.74s0-1.86,0-2.16-.37-1.82-.37-2.28a4,4,0,0,0-.43-1.65,5.53,5.53,0,0,1-.55-1.65,9.54,9.54,0,0,1,.34-2.25,26.68,26.68,0,0,0,1.48-2.79,18.35,18.35,0,0,1,1.57-2.88c.25-.25,2.83-3,3.72-3.38a8.63,8.63,0,0,0,2.67-2.71c.29-.68,1.43-2.87,2.58-3.05s3-.34,3.55-.34a19.6,19.6,0,0,0,3.68-.37,6.63,6.63,0,0,0,4.11-5c.8-3.59,2.24-6.68,3.13-7.19a2.12,2.12,0,0,1,1.6-.29c.39,0,1.06.84,1.36,1.14s.67,1,.84,1.18a3.32,3.32,0,0,0,1.83.13,12.27,12.27,0,0,0,3-2.2,11.89,11.89,0,0,0,2.8-6.31c.08-1.1.08-2.58.08-3.3a15,15,0,0,1,.38-3,13.17,13.17,0,0,0,.38-2.67v-2a7.19,7.19,0,0,0-.67-2.62,7.83,7.83,0,0,1-2.09-2.88c-.24-.72-.81-2.82-1-3.3-.29-.92-1.23-3.15-1.35-3.59-.21-.77-1.11-1.08-1.51-3.25-.19-1.06-.72-1.72-.67-2.37.05-1-.41-1.14-.41-1.86,0-1.44-.53-5.41-.41-6.58a18.25,18.25,0,0,0-.13-2.24,14.35,14.35,0,0,0,.13-1.52c0-.3-.18-.3-.63-.52s-2.59-.66-3.47-.92a15.83,15.83,0,0,0-2.56-.55,28.24,28.24,0,0,0-4.18,0h-2.74a6,6,0,0,0-1.91.07c-.59.21-1.1.76-1.86.76a16.14,16.14,0,0,1-3.72-.32,14,14,0,0,0-3.47-.17c-.77,0-1.11.47-1.91.76s-2.07,1.18-2.91,1.44a9.85,9.85,0,0,1-4,.17c-.94-.3-3.26-1.48-4.45-2a15.66,15.66,0,0,0-3.25-1.19c-1.36-.33-2.21-.89-3.18-1.14s-1-.62-2-.76a32.74,32.74,0,0,0-3.51-.26,15.37,15.37,0,0,1-5.12-1.69c-2.12-1-2.23-1.17-2.91-1.41A2.87,2.87,0,0,1,355.83,211.29Z" transform="translate(-292.98 -189.85)"/><path class="cls-2" d="M347.5,234.58c.9,0,4.1-2.76,14.15-4.45,6.05-1,10.75-.52,13.61-.59,4.17-.11,11.63,1,12.28,1.41.38.26-.82.62-1.52.88s-14,6-15.23,6.45-1.78.58-4.11,0c-5.81-1.55-4.68-1.53-5.58-1-.44.24-2.17,1.38-2.32,1.49s.27.27,1.13.5c1.07.29,3.66,1.05,4.26,1.25s.74.14-.48.65S335.66,252.65,335,253s-.84.36-.54.64a10.86,10.86,0,0,0,2.17,1.7,52.08,52.08,0,0,0,5.59-.94,41.23,41.23,0,0,1,12.41-.45c5.61.67,17,2.05,20.56,2.14s8.57.19,12.53-1.13c7.26-2.42,10.92-5.44,11.68-6.12a9.13,9.13,0,0,0,.93-.9l0-.65a2.8,2.8,0,0,1-.56.45,39.52,39.52,0,0,1-10.22,4.15,56.83,56.83,0,0,1-13.22,1c-4.35-.25-8.61-.91-12.37-1.33s-9.82-.93-10.63-1-1.39-.1-.87-.33c1.89-.82,17.48-7.25,17.63-7.3a1.57,1.57,0,0,1,1.3,0c1.38.39,5.24,1.33,5.46,1.37.71.14,3.05-1.19,3.9-1.71.45-.27.41-.53-.22-.71-1.31-.37-5-1.1-5-1.21s.09-.12.55-.31c3.09-1.18,14.43-5.93,17.28-7,0,0,10.92-4.59,11.62-4.87,1-.41,1.91-.62,1.42-1-1-.87-.85-.76-1.51-1.31,0,0-.68.24-1.24.39a41.22,41.22,0,0,1-9.64,1.21,74,74,0,0,1-13.72-.48c-3.38-.51-8.84-2-17.63-.53-7.62,1.24-10.35,2.56-12.35,3.43s-4.39,2.09-5.06,2.45-1.29.64-1.19.75A34,34,0,0,0,347.5,234.58Z" transform="translate(-292.98 -189.85)"/><path class="cls-2" d="M333,262.82l1.51.47a3.55,3.55,0,0,1-1.16,1.9,3.65,3.65,0,0,1-4.61-.44,4.07,4.07,0,0,1-1-2.89,4.2,4.2,0,0,1,1-3,3.41,3.41,0,0,1,2.63-1.07,3.27,3.27,0,0,1,2.31.83,3,3,0,0,1,.79,1.42l-1.54.39a1.6,1.6,0,0,0-.57-.95,1.64,1.64,0,0,0-1.07-.35,1.81,1.81,0,0,0-1.4.61,3.1,3.1,0,0,0-.54,2,3.26,3.26,0,0,0,.53,2.09,1.73,1.73,0,0,0,1.38.62,1.59,1.59,0,0,0,1.08-.39A2.36,2.36,0,0,0,333,262.82Z" transform="translate(-292.98 -189.85)"/><path class="cls-2" d="M335.47,265.68V258H337v6.38h3.89v1.32Z" transform="translate(-292.98 -189.85)"/><path class="cls-2" d="M341.56,257.91h1.57v4.2a8.26,8.26,0,0,0,.06,1.29,1.24,1.24,0,0,0,.48.78,1.73,1.73,0,0,0,1,.28,1.51,1.51,0,0,0,1-.27,1.08,1.08,0,0,0,.41-.68,8,8,0,0,0,.07-1.31v-4.29h1.57V262a9.9,9.9,0,0,1-.13,2,2,2,0,0,1-.47,1,2.3,2.3,0,0,1-.91.64,3.9,3.9,0,0,1-1.49.24,4.36,4.36,0,0,1-1.69-.26,2.38,2.38,0,0,1-.91-.67,2.14,2.14,0,0,1-.44-.86,9.67,9.67,0,0,1-.15-2Z" transform="translate(-292.98 -189.85)"/><path class="cls-2" d="M348.94,257.91H352a10.82,10.82,0,0,1,1.37.07,2,2,0,0,1,1.41,1,1.68,1.68,0,0,1,.24.9,1.78,1.78,0,0,1-.3,1,1.8,1.8,0,0,1-.79.68,1.93,1.93,0,0,1,1.08.71,1.8,1.8,0,0,1,.38,1.16,2.37,2.37,0,0,1-.24,1,2.1,2.1,0,0,1-.67.8,2.15,2.15,0,0,1-1,.36c-.26,0-.89.05-1.89.07h-2.64Zm1.57,1.29V261h1c.61,0,1,0,1.14,0a1.08,1.08,0,0,0,.64-.28.85.85,0,0,0,.23-.61.88.88,0,0,0-.2-.59,1,1,0,0,0-.59-.27c-.16,0-.61,0-1.34,0Zm0,3.07v2.09H352a6,6,0,0,0,1.07-.05,1.07,1.07,0,0,0,.57-.31.92.92,0,0,0,.22-.66,1,1,0,0,0-.17-.59.91.91,0,0,0-.49-.36,5.32,5.32,0,0,0-1.39-.12Z" transform="translate(-292.98 -189.85)"/><path class="cls-2" d="M358.51,261.85a5,5,0,0,1,.35-2,3.6,3.6,0,0,1,.72-1.07,3,3,0,0,1,1-.7,4.36,4.36,0,0,1,1.67-.3,3.65,3.65,0,0,1,2.75,1.06,4,4,0,0,1,1,2.95,4.08,4.08,0,0,1-1,2.95,4.08,4.08,0,0,1-5.49,0A4,4,0,0,1,358.51,261.85Zm1.61-.06a2.87,2.87,0,0,0,.62,2,2.09,2.09,0,0,0,3.08,0,3,3,0,0,0,.6-2,2.86,2.86,0,0,0-.58-2,2.17,2.17,0,0,0-3.12,0A2.9,2.9,0,0,0,360.12,261.79Z" transform="translate(-292.98 -189.85)"/><path class="cls-2" d="M366.79,265.68v-7.77h5.33v1.31h-3.75v1.84h3.24v1.31h-3.24v3.31Z" transform="translate(-292.98 -189.85)"/><path class="cls-2" d="M377.23,265.68v-6.46h-2.3v-1.31h6.17v1.31h-2.3v6.46Z" transform="translate(-292.98 -189.85)"/><path class="cls-2" d="M381.64,265.68v-7.77h5.75v1.31h-4.17v1.72h3.87v1.31h-3.87v2.11h4.32v1.32Z" transform="translate(-292.98 -189.85)"/><path class="cls-2" d="M387.61,265.68l2.67-4.05-2.42-3.72h1.82l1.53,2.31,1.53-2.31h1.83l-2.43,3.72,2.67,4.05h-1.89L391.21,263l-1.72,2.64Z" transform="translate(-292.98 -189.85)"/><path class="cls-2" d="M402.15,265.68h-1.69l-.67-1.77h-3.12l-.64,1.77h-1.66l3-7.77H399Zm-2.87-3.08-1.09-2.88-1,2.88Z" transform="translate(-292.98 -189.85)"/><path class="cls-2" d="M402.1,263.16l1.53-.15a1.81,1.81,0,0,0,.55,1.12,1.66,1.66,0,0,0,1.15.37,1.72,1.72,0,0,0,1.14-.32,1,1,0,0,0,.38-.75.67.67,0,0,0-.16-.47,1.22,1.22,0,0,0-.56-.34c-.18-.06-.6-.18-1.25-.34a4.43,4.43,0,0,1-1.77-.76,2,2,0,0,1-.71-1.57,1.93,1.93,0,0,1,.33-1.11,2.13,2.13,0,0,1,1-.79,4.06,4.06,0,0,1,1.52-.26,3.26,3.26,0,0,1,2.2.64,2.27,2.27,0,0,1,.78,1.72l-1.57.06a1.34,1.34,0,0,0-.44-.86,1.49,1.49,0,0,0-1-.27,1.77,1.77,0,0,0-1.07.28.58.58,0,0,0-.24.48.6.6,0,0,0,.23.48,3.84,3.84,0,0,0,1.44.51,8.43,8.43,0,0,1,1.69.56,2.12,2.12,0,0,1,.85.8,2.25,2.25,0,0,1,.31,1.23,2.33,2.33,0,0,1-.36,1.25,2.16,2.16,0,0,1-1.06.86,4.35,4.35,0,0,1-1.69.29,3.35,3.35,0,0,1-2.26-.68A3,3,0,0,1,402.1,263.16Z" transform="translate(-292.98 -189.85)"/></svg>